<svg xmlns="http://www.w3.org/2000/svg" viewBox="0 0 685.48 685.48"><defs><style>.cls-1{fill:none;stroke:#fff;stroke-opacity:0;}.cls-2{fill:#2282a9;}.cls-2,.cls-3{fill-rule:evenodd;}.cls-3{fill:#fff;}</style></defs><g id="Layer_2" data-name="Layer 2"><g id="Layer_1-2" data-name="Layer 1"><path class="cls-1" d="M342.74.5C153.7.5.5,153.92.5,342.74S154.12,685,342.74,685C531.78,685,685,531.56,685,342.74,685,153.48,531.78.5,342.74.5Zm0,657.38c-173.68,0-314.93-141.18-314.93-315.14S169.06,27.6,342.74,27.6,657.67,168.78,657.67,342.74,516.42,657.88,342.74,657.88Z"/><path class="cls-2" d="M34.51,412.42c2.65,10.05,11.45,19.82,15.83,25l119.57,148.3c44.12,50.1,25.78,43.84,111.47,43.84q76.53,0,153.07,0c32.22,0,44.52,4.71,64.76-13.95,17.23-15.89,50.14-62.21,68.7-84.5,11.36-13.63,22.08-28.23,33.94-42.64,75.68-91.94,70.46-61.06,30.57-220.85-31.31-125.44-11.71-122.48-79.62-153.3L395.32,39.34C333.11,11,344,18.73,285.65,45.58c-34.34,15.81-73.86,33.3-106.07,50.15-32.68,17.11-82,27.13-91.93,61.35-9,31-58.2,236.18-53.14,255.34Z"/><path class="cls-3" d="M361.14,124.26C469.6,130.71,556.41,217.52,562.85,326H538.42a189.66,189.66,0,0,0-30.49-91.17c-21.5,26.65-44.41,55.1-65.84,81.66C429.54,331.72,415,335.61,399,330.36c-17.05-5.56-29.56-21.72-43.91-34.95a58.07,58.07,0,0,1,12.23-7.19l2.85,2.56c10.4,9.32,21.06,23.28,34.36,27.29,8.29,2.52,15.9.68,22.34-8.27,23.4-28.7,48.28-59.31,71.73-88.08a190.34,190.34,0,0,0-137.43-73V124.26ZM326.19,290.78c-10.41,9.32-21.06,23.28-34.36,27.29-5.08,1.54-9.91,1.45-14.37-.91a90.29,90.29,0,0,0-1.68,14.31c6.82,1.8,14,1.36,21.57-1.11,31.7-10.33,47.69-57.32,89.07-54,18.76,1.52,30.07,12.56,36,27.52l11.17-13.7c-9.13-16-23.81-27.16-43.93-28.36-30.19-1.79-42.62,10.22-63.5,28.95Zm101.68,45.74c0,1.5-.05,3-.11,4.52a56,56,0,0,1,6.47,3.85l.8.55.62.74,7.63,9.11c.29-1.69.53-3.39.74-5.12a112.54,112.54,0,0,0,.22-25.34,49.2,49.2,0,0,1-16.37,11.69Zm-6.18,38.36a43.15,43.15,0,0,1-18.07,21.33c-29.22,17.44-43.28,3.63-63.76-15.34-10.09-9.37-19.53-18.73-31.32-29.15-7.31-5.48-14.61-8.14-21.92-8.1a31.63,31.63,0,0,0-10.65,2,107.72,107.72,0,0,0,2.63,18.47A21.93,21.93,0,0,1,288,362.2c14.8.51,26.41,16.33,36.47,26.18,16.82,16.47,28.79,27.68,47.55,28.54,7.36.33,15.62-.73,25.28-3.37,15.11-4.12,26.65-13.73,34.57-26.64l-9.69-11.59-.53-.44Zm-172.27-4.14-60.7,72.73A189.48,189.48,0,0,1,158,351.89H133.52C140,460.35,226.77,547.16,335.23,553.61V529.17A190.32,190.32,0,0,1,197.67,456l58.11-69.84a91.74,91.74,0,0,1-6.36-15.39ZM254.15,291l-56.52-69a190.32,190.32,0,0,1,137.6-73.25V124.26C226.77,130.71,140,217.52,133.52,326H158a189.57,189.57,0,0,1,30.32-90.92l59.53,73.44A94.08,94.08,0,0,1,254.15,291Zm73-12.95a47.93,47.93,0,0,0-17.24-1.67c-33,2.67-43,34.94-41.27,66.05,1.15,21.08,4.79,42.27,24.07,53.79,13.94,8.31,24.41,9.52,33.8,6.45a136.54,136.54,0,0,0,12.87,10.94,44.15,44.15,0,0,1-15.11,3.32c-7.36.33-15.61-.73-25.28-3.37-27.34-7.47-43-32.85-46.68-63.38-5.09-42.16,13.33-85.91,54.34-88.34,14-.84,24.22,1.32,33.21,5.74-4.15,3.08-8.3,6.59-12.71,10.47Zm27.55,104.47,1.77-1.64c10.1-9.37,19.53-18.73,31.33-29.15,7.3-5.48,14.61-8.14,21.91-8.1,6.82,0,13.65,2.45,20.48,7.15l77.56,92.58a189.71,189.71,0,0,0,30.68-91.46h24.43c-6.44,108.46-93.25,195.27-201.71,201.72V529.17A190.35,190.35,0,0,0,498.8,455.86c-23.25-27.85-48.24-57.74-71.48-85.56-6.06-5.27-12.37-8.32-19-8.1-14.81.51-26.42,16.33-36.47,26.18l-4,3.88c-4.38-2.25-8.59-5.66-13.14-9.75Z"/></g></g></svg>