<svg xmlns="http://www.w3.org/2000/svg" viewBox="0 0 163.4 159.6"><defs><style>.cls-1{fill:#2282a9;stroke-width:3px;}.cls-1,.cls-2{stroke:#fff;stroke-opacity:0;}.cls-2{fill:#666;}</style></defs><g id="Layer_2" data-name="Layer 2"><g id="Layer_1-2" data-name="Layer 1"><path class="cls-1" d="M81.7,1.5C37.4,1.5,1.5,36.6,1.5,79.8s36,78.3,80.2,78.3,80.2-35.1,80.2-78.3S126,1.5,81.7,1.5Zm0,150.4C41,151.9,7.9,119.6,7.9,79.8S41,7.7,81.7,7.7,155.5,40,155.5,79.8s-33.1,72.1-73.8,72.1Z"/><path class="cls-2" d="M84.58,33.62v86h-6v-86Z"/><path class="cls-2" d="M68.48,112.42l3.5-3.7,10,10.8,10-10.8,3.5,3.7-11.8,12.8a2.42,2.42,0,0,1-3.5,0h0Z"/></g></g></svg>