<svg xmlns="http://www.w3.org/2000/svg" viewBox="0 0 685.48 685.48"><defs><style>.cls-1,.cls-3{fill:#fff;}.cls-1,.cls-3,.cls-4{stroke:#fff;}.cls-1,.cls-2,.cls-3,.cls-4{stroke-opacity:0;}.cls-2{fill:#2282a9;stroke:#000;stroke-width:3.83px;}.cls-3{stroke-width:3px;}.cls-4{fill:none;}</style></defs><g id="Layer_2" data-name="Layer 2"><g id="Layer_1-2" data-name="Layer 1"><path class="cls-1" d="M414.83,367.74h-275c-3.31,0-6-2.19-6-4.89V230.63c0-2.7,2.7-4.89,6-4.89h275c3.3,0,6,2.19,6,4.89V362.85c0,2.7-2.71,4.89-6,4.89Zm-268-10h262v-123h-262Z"/><path class="cls-1" d="M193.67,342.74H165a2.21,2.21,0,0,1-2.2-2.2v-87.6a2.21,2.21,0,0,1,2.2-2.2h28.6a2.21,2.21,0,0,1,2.2,2.2v87.6A2.53,2.53,0,0,1,193.67,342.74Zm-25.83-3h24v-84h-24Zm66-83h-5v-2h-2v-4h4.8a2.21,2.21,0,0,1,2.2,2.2Zm0,77h-5v-7h5Zm0-11h-5v-7h5Zm0-11h-5v-7h5Zm0-11h-5v-7h5Zm0-11h-5v-7h5Zm0-11h-5v-7h5Zm0-11h-5v-7h5Zm-2.25,75h-4.75v-4h2v-2h5v3.8a2.39,2.39,0,0,1-2.25,2.2Zm-18.75-4h10v4h-10Zm-5,4H203a2.21,2.21,0,0,1-2.2-2.2v-3.8h5v2h2Zm-2-9h-5v-7h5Zm0-11h-5v-7h5Zm0-11h-5v-7h5Zm0-11h-5v-7h5Zm0-11h-5v-7h5Zm0-11h-5v-7h5Zm0-11h-5v-7h5Zm0-11h-5v-3.8a2.21,2.21,0,0,1,2.2-2.2h4.8v4h-2Zm7-5h10v4h-10Zm59,5h-5v-2h-2v-4h4.8a2.21,2.21,0,0,1,2.2,2.2Zm0,77h-5v-7h5Zm0-11h-5v-7h5Zm0-11h-5v-7h5Zm0-11h-5v-7h5Zm0-11h-5v-7h5Zm0-11h-5v-7h5Zm0-11h-5v-7h5Zm-2.25,75h-4.75v-4h2v-2h5v3.8a2.39,2.39,0,0,1-2.25,2.2Zm-18.75-4h10v4h-10v-4Zm-5,4H241a2.21,2.21,0,0,1-2.2-2.2v-3.8h5v2h2Zm-3-9h-5v-7h5Zm0-11h-5v-7h5Zm0-11h-5v-7h5Zm0-11h-5v-7h5Zm0-11h-5v-7h5Zm0-11h-5v-7h5Zm0-11h-5v-7h5Zm0-11h-5v-3.8a2.21,2.21,0,0,1,2.2-2.2h4.8v4h-2Zm8-5h10v4h-10v-4Z"/><path class="cls-1" d="M317.14,342.74h-29.6a2.71,2.71,0,0,1-2.7-2.7v-87.1a2.5,2.5,0,0,1,2.7-2.2h29.6a2.71,2.71,0,0,1,2.7,2.7v87.1A3.51,3.51,0,0,1,317.14,342.74Zm-28.3-3h25v-84h-25Zm69-83h-5v-2h-2v-4h4.8a2.21,2.21,0,0,1,2.2,2.2Zm1,77h-5v-7h5Zm0-11h-5v-7h5Zm0-11h-5v-7h5Zm0-11h-5v-7h5Zm0-11h-5v-7h5Zm0-11h-5v-7h5Zm0-11h-5v-7h5Zm-3.25,75h-4.75v-4h2v-2h5v3.8c.51,1.1-.61,2.2-2.25,2.2Zm-19.75-4h10v4h-10v-4Zm-5,4H326a2.21,2.21,0,0,1-2.2-2.2v-3.8h5v2h2Zm-3-9h-5v-7h5Zm0-11h-5v-7h5Zm0-11h-5v-7h5Zm0-11h-5v-7h5Zm0-11h-5v-7h5Zm0-11h-5v-7h5Zm0-11h-5v-7h5Zm1-11h-5v-3.8a2.21,2.21,0,0,1,2.2-2.2h4.8v4h-2Zm7-5h10v4h-10v-4Zm61,5h-5v-2h-2v-4h4.8a2.21,2.21,0,0,1,2.2,2.2Zm0,77h-5v-7h5Zm0-11h-5v-7h5Zm0-11h-5v-7h5Zm0-11h-5v-7h5Zm0-11h-5v-7h5Zm0-11h-5v-7h5Zm0-11h-5v-7h5Zm-2.25,75h-4.75v-4h2v-2h5v3.8c.51,1.1-.61,2.2-2.25,2.2Zm-19.75-4h10v4h-10v-4Zm-5,4H365a2.21,2.21,0,0,1-2.2-2.2v-3.8h5v2h2Zm-3-9h-5v-7h5Zm0-11h-5v-7h5Zm0-11h-5v-7h5Zm0-11h-5v-7h5Zm0-11h-5v-7h5Zm0-11h-5v-7h5Zm0-11h-5v-7h5Zm0-11h-5v-3.8a2.21,2.21,0,0,1,2.2-2.2h4.8v4h-2Zm8-5h10v4h-10v-4Z"/><path class="cls-2" d="M333.74,29.14c-6,.5-11,1.6-15.3,4.4L110.24,136c-11.5,5.5-19.2,14.8-21.9,27.4l-51.5,231.2c-2.2,11-.5,21.9,5.5,31.2a30.76,30.76,0,0,0,2.2,3.3l144.1,185.2c7.7,10.4,18.6,15.9,31.2,15.9h231.8a38.65,38.65,0,0,0,31.2-15.3l144.1-185.2c7.7-10.4,11-22.5,7.7-35.1l-51.5-230.7a36.24,36.24,0,0,0-21.9-27.4L353,34c-6.7-3.2-12.7-5.4-19.3-4.9Z"/><path class="cls-1" d="M339.24,552.34c-115.1,0-208.8-91.5-208.8-204.9,0-112.9,93.7-204.9,208.8-204.9S548,234,548,347.44,454.24,552.34,339.24,552.34Zm0-391.8c-105.8,0-190.7,83.8-190.7,187.4s84.9,187.4,190.7,187.4,190.7-83.8,190.7-187.4-85-187.4-190.7-187.4Z"/><path class="cls-3" d="M277.65,395.74H195a8.22,8.22,0,0,1-8.2-8.2v-80.6a8.22,8.22,0,0,1,8.2-8.2h82.6a8.22,8.22,0,0,1,8.2,8.2v80.64a8,8,0,0,1-8.19,8.16Zm-74.81-15h66v-65h-66Zm264.76-90H418a8.22,8.22,0,0,1-8.2-8.2v-48.6a8.22,8.22,0,0,1,8.2-8.2h49.6a8.22,8.22,0,0,1,8.2,8.2v48.71A8,8,0,0,1,467.6,290.74Zm-41.76-16h33v-32h-33Zm41.76,106H418a8.22,8.22,0,0,1-8.2-8.2v-48.6a8.22,8.22,0,0,1,8.2-8.2h49.6a8.22,8.22,0,0,1,8.2,8.2v48.62A8.45,8.45,0,0,1,467.6,380.74Zm-41.76-17h33v-32h-33Zm41.76,105H418a8.22,8.22,0,0,1-8.2-8.2v-48.6a8.22,8.22,0,0,1,8.2-8.2h49.6a8.22,8.22,0,0,1,8.2,8.2v48.62A8.06,8.06,0,0,1,467.6,468.74Zm-41.76-16h33v-32h-33Zm-28.95-99.15-27.22,26.73-11.22-11.21,13.36-13.37h-69v-16h69l-13.36-13.37,11.22-11.22,27.22,26.74c3.22,3.7,3.22,8.48,0,11.7ZM394,263l-10.4,37.3-15.9-4.4,4.9-19.2-72.9,37.8-7.7-14.2,71.2-37.3-17.5-4.4,4.4-15.9,37.8,9.9c5,1.1,7.7,5.5,6.1,10.4.5-.6.5,0,0,0Zm-5.5,179.7-37.8,10.4-4.4-16.4,17.5-4.9-71.2-37.3,7.7-14.2,73.4,37.8-5.5-19.2,15.9-4.4,10.4,37.3c1.1,5.4-1.6,9.8-6,10.9Z"/><path class="cls-4" d="M342.74.5C153.7.5.5,153.92.5,342.74S154.12,685,342.74,685C531.78,685,685,531.56,685,342.74,685,153.48,531.78.5,342.74.5Zm0,657.38c-173.68,0-314.93-141.18-314.93-315.14S169.06,27.6,342.74,27.6,657.67,168.78,657.67,342.74,516.42,657.88,342.74,657.88Z"/></g></g></svg>