<svg xmlns="http://www.w3.org/2000/svg" viewBox="0 0 163.4 159.6"><defs><style>.cls-1{fill:#2282a9;stroke-width:3px;}.cls-1,.cls-2{stroke:#fff;stroke-opacity:0;}.cls-2{fill:#666;}</style></defs><g id="Layer_2" data-name="Layer 2"><g id="Layer_1-2" data-name="Layer 1"><path class="cls-1" d="M81.7,1.5C37.4,1.5,1.5,36.6,1.5,79.8s36,78.3,80.2,78.3,80.2-35.1,80.2-78.3S126,1.5,81.7,1.5Zm0,150.4C41,151.9,7.9,119.6,7.9,79.8S41,7.7,81.7,7.7,155.5,40,155.5,79.8s-33.1,72.1-73.8,72.1Z"/><path class="cls-2" d="M37.38,76.83h86v6h-86Z"/><path class="cls-2" d="M117.35,60.92l-3.7-3.5,10.7-10-10.7-10,3.7-3.5L130,45.72a2.42,2.42,0,0,1,0,3.5h0Z"/><path class="cls-2" d="M116.18,92.86l-3.7-3.5,10.7-10-10.7-10,3.7-3.5,12.6,11.8a2.42,2.42,0,0,1,0,3.5h0Z"/><path class="cls-2" d="M116.18,125.68l-3.7-3.5,10.7-10-10.7-10,3.7-3.5,12.6,11.8a2.42,2.42,0,0,1,0,3.5h0Z"/><path class="cls-2" d="M90.38,44.83h35v6h-35Z"/><path class="cls-2" d="M88.38,108.83h35v6h-35Z"/><path class="cls-2" d="M94.38,44.83v70h-6v-70Z"/></g></g></svg>